<svg width="327" height="221" viewBox="0 0 327 221" fill="none" xmlns="http://www.w3.org/2000/svg">
<path d="M123.952 86.7595L163.626 86.6337L203.299 86.5079L203.235 116.574C203.235 129.468 203.171 138.903 203.171 140.79C203.171 141.105 203.171 141.797 202.854 142.614C202.408 143.747 201.709 144.438 200.883 145.193C198.848 147.08 196.496 147.961 195.16 148.464C193.444 149.156 192.045 149.596 190.901 149.911C189.502 150.351 187.595 150.854 185.369 151.357C180.982 152.301 177.613 152.615 174.625 152.867C171.064 153.182 166.868 153.37 162.163 153.307C154.979 153.182 149.575 152.49 148.176 152.301C142.899 151.609 139.784 150.728 135.333 149.596C135.333 149.596 131.264 148.527 127.259 145.948C126.368 145.382 125.224 144.501 124.398 143.118C124.08 142.551 123.889 141.985 123.762 141.608V131.796L123.825 108.208L123.952 94.3704V86.7595Z" fill="#202060"/>
<path d="M123.885 96.6973V96.1941V89.6526V84.1803L131.323 85.6899L142.386 87.2624L154.72 88.2059L165.592 88.3946L175.956 88.0801L188.163 87.0108L197.191 85.627L203.294 84.369V91.0993L203.231 97.2005L202.15 99.0875L199.162 101.603L192.105 104.686L184.984 106.447L178.435 107.516L169.089 108.397L158.599 108.334L148.49 107.39L139.271 105.755L132.531 103.679L128.017 101.478L126.682 100.597L125.474 99.4649L124.393 97.9553" fill="#40009B"/>
<path d="M229.308 69.1596C229.339 57.939 199.96 48.7633 163.688 48.6651C127.415 48.5668 97.9857 57.5831 97.9547 68.8037C97.9236 80.0242 127.303 89.1999 163.575 89.2982C199.847 89.3965 229.277 80.3801 229.308 69.1596Z" fill="#202060"/>
<path d="M163.624 74.4304C150.591 74.3675 137.748 73.0466 127.575 70.6564H127.512C125.668 70.2161 125.668 67.6372 127.512 67.1969H127.575C137.811 64.8696 150.591 63.5487 163.688 63.6116C176.722 63.6745 189.565 64.9954 199.737 67.3856H199.801C201.644 67.8259 201.644 70.4048 199.801 70.8451H199.737C189.501 73.1724 176.658 74.4304 163.624 74.4304Z" fill="#FFD740"/>
<path d="M156.694 50.3398C156.694 57.6991 155.994 64.8696 154.659 71.7257C153.388 71.6628 152.052 71.5999 150.781 71.4741C149.7 71.4112 148.619 71.3483 147.602 71.2225C146.012 71.0967 144.487 70.908 142.961 70.7822C142.897 70.7822 142.833 70.7822 142.77 70.7822C140.1 70.4677 137.493 70.0903 135.013 69.7129C133.932 63.4229 133.424 56.9443 133.424 50.3398C133.424 32.0989 137.684 14.9902 145.122 0.271729C152.497 14.9273 156.757 32.036 156.694 50.3398Z" fill="#40009B"/>
<path d="M147.666 71.2222C146.076 71.0964 144.55 70.9077 143.024 70.7819C144.232 61.8501 146.394 41.4078 142.452 29.8343C142.071 28.6392 142.707 27.3183 143.915 26.9409C145.123 26.5635 146.458 27.1925 146.839 28.3876C151.099 40.9675 148.937 61.8501 147.666 71.2222Z" fill="#FFD740"/>
<path d="M193.313 50.7819C193.313 57.3864 192.741 63.8651 191.66 70.155C189.117 70.5953 186.51 70.9098 183.776 71.2243H183.712C182.186 71.413 180.661 71.5388 179.071 71.6646C177.99 71.7275 176.909 71.8533 175.765 71.9162C174.493 71.9791 173.285 72.042 172.014 72.1049C170.742 65.1859 170.043 58.0783 170.043 50.7191C170.043 32.4782 174.366 15.3695 181.741 0.651001C189.117 15.4324 193.313 32.5411 193.313 50.7819Z" fill="#40009B"/>
<path d="M186 30.6523C182.058 42.2888 184.156 62.6683 185.364 71.6C183.839 71.7887 182.313 71.9145 180.723 72.0403C179.452 62.6683 177.354 41.7227 181.613 29.2056C181.995 28.0105 183.33 27.3186 184.538 27.7589C185.746 28.1363 186.382 29.4572 186 30.6523Z" fill="#FFD740"/>
<path d="M160.772 95.2167C160.083 95.2167 159.739 95.5611 159.739 96.2497V101.346C150.855 101.621 145.759 102.654 142.11 105.891C138.529 108.99 137.289 113.741 137.289 121.798C137.289 129.855 138.529 134.607 142.11 137.844C145.759 140.942 150.855 142.044 159.739 142.32V147.347C159.739 148.104 160.083 148.449 160.772 148.449H167.314C168.002 148.449 168.347 148.104 168.347 147.347V142.32C177.093 142.044 183.015 140.529 186.114 137.775C189.213 134.951 190.796 129.649 190.796 121.798C190.796 114.017 189.213 108.714 186.114 105.96C183.015 103.136 177.093 101.621 168.347 101.346V96.2497C168.347 95.5611 168.002 95.2167 167.314 95.2167H160.772ZM159.739 134.469C154.299 134.263 150.718 133.299 148.858 131.577C147.068 129.855 146.173 126.619 146.173 121.798C146.173 116.978 147.068 113.741 148.858 112.02C150.718 110.298 154.299 109.334 159.739 109.127V134.469ZM168.347 109.127C173.787 109.334 177.437 110.298 179.227 112.02C181.018 113.741 181.913 116.978 181.913 121.798C181.913 126.619 181.018 129.855 179.227 131.577C177.437 133.299 173.787 134.263 168.347 134.469V109.127Z" fill="#FFD740"/>
<path d="M27.8304 160.177C27.1162 160.177 26.7592 160.534 26.7592 161.248V166.533C17.5467 166.819 12.262 167.89 8.47704 171.246C4.76348 174.46 3.47802 179.388 3.47802 187.743C3.47802 196.099 4.76348 201.026 8.47704 204.383C12.262 207.596 17.5467 208.739 26.7592 209.025V214.238C26.7592 215.024 27.1162 215.381 27.8304 215.381H34.6147C35.3289 215.381 35.686 215.024 35.686 214.238V209.025C44.7556 208.739 50.8973 207.168 54.1109 204.311C57.3246 201.383 58.9671 195.884 58.9671 187.743C58.9671 179.673 57.3246 174.174 54.1109 171.318C50.8973 168.39 44.7556 166.819 35.686 166.533V161.248C35.686 160.534 35.3289 160.177 34.6147 160.177H27.8304ZM26.7592 200.884C21.1174 200.669 17.4039 199.669 15.4757 197.884C13.6189 196.099 12.6905 192.742 12.6905 187.743C12.6905 182.744 13.6189 179.388 15.4757 177.602C17.4039 175.817 21.1174 174.817 26.7592 174.603V200.884ZM35.686 174.603C41.3277 174.817 45.1127 175.817 46.9695 177.602C48.8262 179.388 49.7546 182.744 49.7546 187.743C49.7546 192.742 48.8262 196.099 46.9695 197.884C45.1127 199.669 41.3277 200.669 35.686 200.884V174.603Z" fill="#202060"/>
<path d="M84.501 161.667C75.4313 161.667 70.1467 163.095 66.6474 167.594C63.1481 171.95 62.0768 178.378 62.0768 189.447C62.0768 200.373 63.1481 206.801 66.6474 211.157C70.1467 215.513 75.4313 217.013 84.501 217.013C93.642 217.013 98.9267 215.513 102.355 211.157C105.854 206.801 106.925 200.516 106.925 189.447C106.925 178.378 105.854 171.95 102.355 167.594C98.9267 163.095 93.642 161.667 84.501 161.667ZM71.3607 189.447C71.3607 181.663 72.2177 176.378 73.8602 173.736C75.5028 171.022 79.0735 169.665 84.501 169.665C89.9285 169.665 93.4992 171.022 95.1418 173.736C96.8557 176.378 97.7127 181.663 97.7127 189.447C97.7127 197.231 96.8557 202.444 95.1418 205.087C93.4992 207.729 89.9285 209.014 84.501 209.014C79.0735 209.014 75.5028 207.729 73.8602 205.087C72.2177 202.444 71.3607 197.231 71.3607 189.447Z" fill="#202060"/>
<path d="M141.254 160.749C140.611 160.749 140.111 160.963 139.754 161.463L120.258 184.387V161.82C120.258 161.106 119.901 160.749 119.187 160.749H112.117C111.403 160.749 111.046 161.106 111.046 161.82V214.309C111.046 215.024 111.403 215.381 112.117 215.381H119.187C119.901 215.381 120.258 215.024 120.258 214.309V188.029L140.968 214.595C141.254 215.095 141.754 215.381 142.54 215.381H150.252C152.038 215.381 152.252 214.309 151.466 213.452L129.828 185.958L149.752 162.105C150.467 161.177 150.252 160.749 149.11 160.749H141.254Z" fill="#202060"/>
<path d="M188.856 160.749C188.285 160.749 187.856 161.034 187.571 161.605L177.073 189.743L163.861 161.534C163.647 161.034 163.29 160.749 162.647 160.749H154.863C153.934 160.749 153.72 161.177 154.077 162.034L172.645 201.598C170.574 206.24 168.86 207.739 165.504 207.739H161.219C160.505 207.739 160.148 208.096 160.148 208.81V213.381C160.148 214.238 160.576 214.809 161.433 215.024C163.218 215.523 165.218 215.738 167.36 215.738C170.931 215.738 173.859 214.738 176.073 212.738C178.358 210.739 180.501 207.025 182.5 201.598L197.212 161.963C197.569 161.177 197.283 160.749 196.355 160.749H188.856Z" fill="#202060"/>
<path d="M213.803 160.391C208.161 160.391 203.662 160.677 200.377 161.177C199.448 161.391 199.02 161.82 199.02 162.32V167.604C199.02 168.104 199.377 168.39 200.091 168.39H213.088C218.587 168.39 222.23 168.818 223.943 169.675C225.729 170.532 226.586 172.46 226.586 175.46V176.317C226.586 179.388 226.014 181.459 224.8 182.601C223.658 183.744 221.23 184.315 217.588 184.315H203.09C202.448 184.315 202.162 184.601 202.162 185.244V190.885C202.162 191.457 202.448 191.742 203.09 191.742H217.659C221.301 191.742 223.658 192.314 224.8 193.456C226.014 194.599 226.586 196.67 226.586 199.669V200.098C226.586 203.169 225.729 205.24 224.086 206.24C222.444 207.239 218.873 207.739 213.517 207.739H200.091C199.377 207.739 199.02 207.953 199.02 208.453V213.881C199.02 214.381 199.448 214.738 200.377 214.952C204.162 215.452 208.589 215.738 213.803 215.738C222.087 215.738 227.8 214.809 231.013 212.881C234.227 210.953 235.798 207.097 235.798 201.383V199.241C235.798 193.028 233.584 189.243 229.228 188.029C233.584 186.886 235.798 183.101 235.798 176.745V174.389C235.798 168.747 234.156 165.033 230.942 163.177C227.728 161.32 222.015 160.391 213.803 160.391Z" fill="#202060"/>
<path d="M239.644 160.749C238.93 160.749 238.573 161.106 238.573 161.82V214.309C238.573 215.024 238.93 215.381 239.644 215.381H274.209C274.995 215.381 275.352 215.024 275.352 214.309V208.453C275.352 207.739 274.995 207.382 274.209 207.382H247.786V192.528H271.924C272.638 192.528 272.995 192.171 272.995 191.457V185.815C272.995 185.101 272.638 184.744 271.924 184.744H247.786V168.747H274.209C274.995 168.747 275.352 168.39 275.352 167.676V161.82C275.352 161.106 274.995 160.749 274.209 160.749H239.644Z" fill="#202060"/>
<path d="M308.737 146.466C308.166 146.466 307.737 146.751 307.523 147.323C306.309 150.251 304.809 151.179 301.381 151.179C297.953 151.179 296.454 150.251 295.24 147.323C295.025 146.751 294.597 146.466 294.026 146.466H290.812C290.026 146.466 289.669 146.823 289.812 147.608C290.312 151.108 291.455 153.464 293.097 154.821C294.74 156.107 297.525 156.749 301.381 156.749C305.238 156.749 308.023 156.107 309.665 154.821C311.308 153.464 312.451 151.108 312.95 147.608C313.093 146.823 312.736 146.466 311.951 146.466H308.737ZM280.457 160.749C279.743 160.749 279.386 161.106 279.386 161.82V214.238C279.386 215.024 279.743 215.381 280.457 215.381H285.956C287.241 215.381 288.241 214.881 288.955 213.809L314.879 175.317V214.238C314.879 215.024 315.236 215.381 315.95 215.381H322.948C323.663 215.381 324.02 215.024 324.02 214.238V161.82C324.02 161.106 323.663 160.749 322.948 160.749H317.021C314.45 160.82 313.95 161.177 312.808 162.962L288.598 198.884V161.82C288.598 161.106 288.241 160.749 287.527 160.749H280.457Z" fill="#202060"/>
</svg>
