<svg width="67" height="67" viewBox="0 0 67 67" fill="none" xmlns="http://www.w3.org/2000/svg">
<g clip-path="url(#clip0)">
<path d="M45.2238 56.1231C44.2934 57.0535 42.8285 57.0535 41.8981 56.1231C40.999 55.224 40.999 53.7278 41.8981 52.8308L58.7617 35.9672L3.1141 35.9672C1.8169 35.9672 0.752314 34.9362 0.752314 33.639C0.752314 32.3418 1.8169 31.2772 3.1141 31.2772L58.7617 31.2772L41.8981 14.445C40.999 13.5146 40.999 12.0162 41.8981 11.1193C42.8285 10.1888 44.2934 10.1888 45.2239 11.1193L66.0796 31.975C66.9787 32.8741 66.9787 34.3704 66.0796 35.2673L45.2238 56.1231Z" fill="black"/>
</g>
<defs>
<clipPath id="clip0">
<rect width="66" height="66" fill="white" transform="translate(66.752 66.6204) rotate(-180)"/>
</clipPath>
</defs>
</svg>
